<?xml version="1.0" encoding="UTF-8" standalone="no"?>
<svg width="77px" height="32px" viewBox="0 0 77 32" version="1.1" xmlns="http://www.w3.org/2000/svg" xmlns:xlink="http://www.w3.org/1999/xlink">
    <!-- Generator: Sketch 39.1 (31720) - http://www.bohemiancoding.com/sketch -->
    <title>logo-click</title>
    <desc>Created with Sketch.</desc>
    <defs></defs>
    <g id="Page-1" stroke="none" stroke-width="1" fill="none" fill-rule="evenodd">
        <path d="M24.58709,15.724162 C24.58709,18.5173912 19.5548974,22.7095634 15.6643463,22.7095634 C11.7737952,22.7095634 8.6200749,19.5821992 8.6200749,15.724162 C8.6200749,11.8661247 11.7737952,8.73876051 15.6643463,8.73876051 C19.5548974,8.73876051 24.58709,13.2005693 24.58709,15.724162 Z M25.1797481,20.6430255 C23.393086,22.3213847 22.9699601,22.7104715 22.2047175,23.3519642 C19.8850389,25.2967 18.1260843,26.0928029 15.8496106,26.0928029 C10.0787087,26.0928029 5.40060806,21.4537978 5.40060806,15.7311241 C5.40060806,15.4975788 5.409296,15.2658964 5.42549782,15.0363095 C5.42596744,15.027927 5.42690668,15.0195445 5.4273763,15.011162 C5.44381293,14.783438 5.46729383,14.5578095 5.49781901,14.3340438 L5.49594054,14.3340438 C6.17829563,9.26590219 10.5520837,5.35547445 15.8496106,5.35547445 C18.1260843,5.35547445 19.8850389,6.15181022 22.2047175,8.09631314 C22.9699601,8.73780584 23.393086,9.1268927 25.1797481,10.8052518 C26.2624526,11.8223263 27.9716276,11.7764555 28.9972736,10.7027993 C30.0226847,9.62914307 29.9764273,7.93425182 28.8937228,6.91741022 C27.0185377,5.15569197 26.5677044,4.74122482 25.6911622,4.00659343 C22.479444,1.31395401 19.5767346,0 15.8496106,0 C7.32932957,0 0.381799509,6.66756569 0.0176106785,15.0276942 C0.0162018242,15.0530745 0.0166714423,15.0786876 0.0154973971,15.1040679 C0.00774869853,15.3078088 0,15.5115496 0,15.7171533 C0,15.7180847 0.000234809046,15.7187832 0.000234809046,15.7194818 C0.000234809046,15.7234401 0,15.7271657 0,15.7311241 C0,24.4114168 7.09616419,31.4482774 15.8496106,31.4482774 C19.5767346,31.4482774 22.479444,30.1343234 25.6911622,27.4419168 C26.5677044,26.7072854 27.0185377,26.2925854 28.8937228,24.5311 C29.9764273,23.5140255 30.0226847,21.8191343 28.9972736,20.7454781 C27.9716276,19.6718219 26.2624526,19.6259511 25.1797481,20.6430255 Z M38.4329577,25.0915853 L39.1974959,27.1059423 L39.9601557,25.0915853 L40.5551618,25.0915853 L40.5551618,27.7194934 L40.0965798,27.7194934 L40.0965798,26.8530707 L40.1421327,25.6944255 L39.3592794,27.7194934 L39.0298423,27.7194934 L38.2491022,25.6962882 L38.2946551,26.8530707 L38.2946551,27.7194934 L37.8358383,27.7194934 L37.8358383,25.0915853 L38.4329577,25.0915853 Z M41.9238638,27.7555846 C41.6437366,27.7555846 41.4164414,27.6680342 41.2422131,27.4929335 C41.0682196,27.3180656 40.9811054,27.0847532 40.9811054,26.7936948 L40.9811054,26.7394415 C40.9811054,26.5445488 41.0191445,26.3703795 41.0949878,26.2169335 C41.1708312,26.0634875 41.2771997,25.9440372 41.4143281,25.8585824 C41.5514566,25.7731277 41.7043173,25.7305167 41.8729102,25.7305167 C42.1410621,25.7305167 42.3483985,25.8152729 42.4946846,25.9850182 C42.6407358,26.1547634 42.7139962,26.3948284 42.7139962,26.7052131 L42.7139962,26.8821766 L41.4270078,26.8821766 C41.4403919,27.0433065 41.4946328,27.1709065 41.5899653,27.2647437 C41.6852978,27.3585809 41.8050504,27.405616 41.949458,27.405616 C42.1520982,27.405616 42.3171689,27.3243525 42.4444354,27.1618255 L42.6830014,27.3874539 C42.6041056,27.5041101 42.4989111,27.5946875 42.3671832,27.6591861 C42.2354554,27.7234518 42.0877605,27.7555846 41.9238638,27.7555846 Z M41.8712665,26.0825809 C41.7498703,26.0825809 41.6519549,26.1244934 41.5772856,26.2087839 C41.5026163,26.2930744 41.4549501,26.4104291 41.4342869,26.5608481 L42.2770166,26.5608481 L42.2770166,26.5282496 C42.2673894,26.3815561 42.2279415,26.2704882 42.1586728,26.1952788 C42.089639,26.1200693 41.9938369,26.0825809 41.8712665,26.0825809 Z M44.0880987,26.1673372 C44.0298661,26.1577904 43.969755,26.1529007 43.9080002,26.1529007 C43.70536,26.1529007 43.5687011,26.2299729 43.4984932,26.3838846 L43.4984932,27.7194934 L43.056113,27.7194934 L43.056113,25.766608 L43.4782997,25.766608 L43.4893357,25.9850182 C43.5961738,25.8152729 43.7441035,25.7305167 43.9333596,25.7305167 C43.9965232,25.7305167 44.0486508,25.7388992 44.0899772,25.755897 L44.0880987,26.1673372 Z M45.1419217,27.405616 C45.252282,27.405616 45.3440923,27.373716 45.4168831,27.309916 C45.4896739,27.246116 45.5284174,27.1671809 45.5333484,27.0733437 L45.9501345,27.0733437 C45.9452035,27.1948897 45.9069296,27.3082861 45.8355477,27.4135328 C45.7639309,27.5187795 45.66672,27.6021386 45.5441496,27.6636101 C45.4215793,27.7250817 45.2893818,27.7555846 45.1473224,27.7555846 C44.8718913,27.7555846 44.6535189,27.6671028 44.4922051,27.4903722 C44.3308913,27.3134087 44.250117,27.0691525 44.250117,26.7576036 L44.250117,26.7124313 C44.250117,26.4150861 44.3301869,26.1773496 44.4903266,25.9985233 C44.6504664,25.8199299 44.8688388,25.7305167 45.1456787,25.7305167 C45.3797833,25.7305167 45.5706831,25.7982751 45.7181431,25.9335591 C45.8653684,26.068843 45.9428554,26.2467379 45.9501345,26.4670109 L45.5333484,26.4670109 C45.5284174,26.3550116 45.4899088,26.2630372 45.4178224,26.1908547 C45.3455012,26.1186722 45.2536909,26.0825809 45.1419217,26.0825809 C44.9986882,26.0825809 44.888328,26.1340401 44.8106062,26.2367255 C44.7331192,26.3396437 44.6936713,26.4958839 44.6924972,26.7052131 L44.6924972,26.7755328 C44.6924972,26.9874233 44.7310059,27.1452934 44.8080233,27.2493758 C44.8850406,27.3534583 44.9963401,27.405616 45.1419217,27.405616 Z M47.4608959,27.7194934 C47.4414067,27.6822379 47.4245005,27.6214649 47.4099423,27.5371744 C47.2690569,27.6829364 47.0967071,27.7555846 46.8928928,27.7555846 C46.6951836,27.7555846 46.5338698,27.6997014 46.4087166,27.5877021 C46.2837981,27.4759357 46.2213389,27.3376247 46.2213389,27.1727693 C46.2213389,26.9646043 46.2992955,26.8046386 46.4552087,26.6935707 C46.6111219,26.5820372 46.8341905,26.5263868 47.1241797,26.5263868 L47.3953842,26.5263868 L47.3953842,26.3983211 C47.3953842,26.2972656 47.3667375,26.2164678 47.3096789,26.1556948 C47.2526203,26.0949218 47.1659757,26.0644189 47.0495104,26.0644189 C46.9487774,26.0644189 46.8661246,26.0893335 46.8020217,26.1393955 C46.737684,26.1892247 46.7055152,26.2527919 46.7055152,26.3298642 L46.2631349,26.3298642 C46.2631349,26.2227547 46.2990607,26.1223977 46.3704427,26.0292591 C46.4420594,25.9358875 46.5395052,25.8630065 46.6627799,25.8099174 C46.7858199,25.7570612 46.9231832,25.7305167 47.0748698,25.7305167 C47.3054523,25.7305167 47.4893078,25.7880299 47.6264363,25.9028233 C47.7635647,26.0178496 47.8340075,26.1794452 47.8375296,26.3876101 L47.8375296,27.2682364 C47.8375296,27.4440357 47.8624194,27.5842094 47.9121989,27.6887576 L47.9121989,27.7194934 L47.4608959,27.7194934 Z M46.9748412,27.4037532 C47.0621901,27.4037532 47.1443733,27.3825642 47.2213907,27.3404189 C47.298408,27.2985065 47.3564059,27.2419247 47.3953842,27.1709065 L47.3953842,26.802543 L47.1568182,26.802543 C46.9931563,26.802543 46.8698815,26.8309503 46.7874635,26.887532 C46.7048108,26.9441138 46.6634844,27.0239802 46.6634844,27.127597 C46.6634844,27.2116547 46.6918963,27.2789474 46.7482504,27.3287766 C46.8046046,27.3788386 46.8802131,27.4037532 46.9748412,27.4037532 Z M48.2179203,26.7287306 C48.2179203,26.4278926 48.288363,26.1861977 48.4290136,26.0038788 C48.569899,25.8215598 48.7584507,25.7305167 48.9951382,25.7305167 C49.2038834,25.7305167 49.3724763,25.8026992 49.5011517,25.9470642 L49.5011517,24.9472204 L49.9435319,24.9472204 L49.9435319,27.7194934 L49.5429477,27.7194934 L49.5211105,27.5173824 C49.388913,27.6761839 49.2123366,27.7555846 48.9916161,27.7555846 C48.7610336,27.7555846 48.5743604,27.6636101 48.4318313,27.4794284 C48.2893022,27.2954795 48.2179203,27.0451693 48.2179203,26.7287306 Z M48.6603005,26.7664518 C48.6603005,26.96507 48.6988092,27.1199131 48.7758265,27.2312138 C48.8528439,27.3425145 48.9624997,27.3981649 49.1043244,27.3981649 C49.2851274,27.3981649 49.4175597,27.3182985 49.5011517,27.1580999 L49.5011517,26.3242758 C49.4199078,26.1678028 49.2888843,26.0897992 49.1080813,26.0897992 C48.9648478,26.0897992 48.8544876,26.1459153 48.7767658,26.2583802 C48.699044,26.371078 48.6603005,26.5403576 48.6603005,26.7664518 Z M51.2720815,27.7555846 C50.9919543,27.7555846 50.7646592,27.6680342 50.5904309,27.4929335 C50.4164374,27.3180656 50.3293232,27.0847532 50.3293232,26.7936948 L50.3293232,26.7394415 C50.3293232,26.5445488 50.3673623,26.3703795 50.4432056,26.2169335 C50.5190489,26.0634875 50.6254174,25.9440372 50.7625459,25.8585824 C50.8996744,25.7731277 51.0525351,25.7305167 51.221128,25.7305167 C51.4892799,25.7305167 51.6966163,25.8152729 51.8426675,25.9850182 C51.9889535,26.1547634 52.062214,26.3948284 52.062214,26.7052131 L52.062214,26.8821766 L50.7752256,26.8821766 C50.7886097,27.0433065 50.8428506,27.1709065 50.9381831,27.2647437 C51.0335155,27.3585809 51.1532681,27.405616 51.2976757,27.405616 C51.5003159,27.405616 51.6653867,27.3243525 51.7926532,27.1618255 L52.0312192,27.3874539 C51.9523233,27.5041101 51.8471289,27.5946875 51.715401,27.6591861 C51.5836731,27.7234518 51.4359782,27.7555846 51.2720815,27.7555846 Z M51.2194843,26.0825809 C51.098088,26.0825809 51.0001726,26.1244934 50.9255034,26.2087839 C50.8508341,26.2930744 50.8031679,26.4104291 50.7825047,26.5608481 L51.6252343,26.5608481 L51.6252343,26.5282496 C51.6156072,26.3815561 51.5761592,26.2704882 51.5068906,26.1952788 C51.4378567,26.1200693 51.3420546,26.0825809 51.2194843,26.0825809 Z M52.3223824,26.725005 C52.3223824,26.533605 52.3606563,26.3612985 52.4369692,26.2078525 C52.5135169,26.0544065 52.6208247,25.9365861 52.7591272,25.8541583 C52.8976645,25.7717306 53.0566303,25.7305167 53.2360244,25.7305167 C53.5018282,25.7305167 53.7176177,25.8152729 53.8831581,25.9850182 C54.0486985,26.1547634 54.1381607,26.3796934 54.1515449,26.6600408 L54.1534233,26.7629591 C54.1534233,26.9555233 54.1160887,27.127597 54.0414194,27.2791802 C53.9669849,27.4307634 53.8601468,27.5481182 53.7211399,27.6310116 C53.5821329,27.7141379 53.4217583,27.7555846 53.2397813,27.7555846 C52.9617674,27.7555846 52.7394032,27.663843 52.5726888,27.4803598 C52.4057396,27.2968766 52.3223824,27.0523875 52.3223824,26.7466598 L52.3223824,26.725005 Z M52.7647626,26.7629591 C52.7647626,26.9639058 52.8065586,27.1213101 52.8901507,27.2349393 C52.9739775,27.3485685 53.0904428,27.405616 53.2397813,27.405616 C53.3888851,27.405616 53.5051155,27.3476372 53.588238,27.2321452 C53.6713604,27.1166532 53.7129216,26.9476065 53.7129216,26.725005 C53.7129216,26.5277839 53.6701863,26.3713109 53.5847158,26.2558189 C53.4990105,26.1403269 53.3830148,26.0825809 53.2360244,26.0825809 C53.0916168,26.0825809 52.97703,26.1393955 52.8920291,26.2530247 C52.8070283,26.3666539 52.7647626,26.536632 52.7647626,26.7629591 Z M55.3857012,27.0102423 C55.3857012,26.8886963 55.4190441,26.7771627 55.4857299,26.6754087 C55.5524156,26.5736547 55.6841435,26.4530401 55.8806787,26.3135649 C55.7775975,26.1848007 55.7057459,26.0753627 55.665124,25.9850182 C55.624502,25.8946736 55.6040736,25.807589 55.6040736,25.7232985 C55.6040736,25.517462 55.6672372,25.3547021 55.7933297,25.2350189 C55.919657,25.1153357 56.0894239,25.0554941 56.3031001,25.0554941 C56.4958784,25.0554941 56.6539049,25.111843 56.7771796,25.224308 C56.9002195,25.3367729 56.9619743,25.4760153 56.9619743,25.642035 C56.9619743,25.7514729 56.9340321,25.8522955 56.8781475,25.9445028 C56.8222629,26.0364773 56.7306874,26.1282189 56.6034209,26.2197277 L56.4230876,26.3496561 L56.9345017,26.9487707 C57.0087013,26.8044058 57.0455663,26.6437415 57.0455663,26.4670109 L57.4297139,26.4670109 C57.4297139,26.7906678 57.3531662,27.0558802 57.2003055,27.2628809 L57.5898537,27.7194934 L57.0765611,27.7194934 L56.9272226,27.5443926 C56.7379665,27.6852649 56.512315,27.7555846 56.2502681,27.7555846 C55.9882212,27.7555846 55.7785367,27.686662 55.6214495,27.5490496 C55.4641274,27.4112043 55.3857012,27.2316795 55.3857012,27.0102423 Z M56.2629478,27.405616 C56.4122864,27.405616 56.5517629,27.3562525 56.6816123,27.2575255 L56.102808,26.5806401 L56.0464539,26.6204569 C55.9008722,26.7298948 55.8278466,26.8549335 55.8278466,26.9958058 C55.8278466,27.1173518 55.8672946,27.2160788 55.9461904,27.2917539 C56.0250862,27.367662 56.1307503,27.405616 56.2629478,27.405616 Z M56.0189812,25.7125875 C56.0189812,25.813643 56.0816752,25.9405445 56.2065936,26.0932919 L56.4085294,25.9561452 L56.4651184,25.9109729 C56.5402573,25.8448445 56.5778267,25.7600882 56.5778267,25.6564715 C56.5778267,25.5880145 56.5517629,25.5293372 56.4996353,25.4804393 C56.4475077,25.4317744 56.3812916,25.4075583 56.3012217,25.4075583 C56.2150468,25.4075583 56.1464825,25.4364313 56.0955289,25.4941773 C56.0445754,25.5519233 56.0189812,25.6245715 56.0189812,25.7125875 Z M59.2699124,26.7431671 L59.2699124,27.7194934 L58.8094519,27.7194934 L58.8094519,25.0915853 L59.8231226,25.0915853 C60.1192168,25.0915853 60.3542606,25.1679591 60.5284889,25.3207065 C60.7024824,25.4736868 60.7895966,25.6757977 60.7895966,25.9272722 C60.7895966,26.1848007 60.7043609,26.3850488 60.5338895,26.5282496 C60.3634182,26.6714503 60.1246174,26.7431671 59.8177219,26.7431671 L59.2699124,26.7431671 Z M59.2699124,26.3766664 L59.8231226,26.3766664 C59.9870193,26.3766664 60.1119377,26.3384795 60.1981126,26.2621058 C60.2842875,26.185732 60.3272576,26.0753627 60.3272576,25.9307649 C60.3272576,25.7889612 60.2835831,25.6755649 60.1962341,25.5905758 C60.1088852,25.5058196 59.9888977,25.4622773 59.8358022,25.459716 L59.2699124,25.459716 L59.2699124,26.3766664 Z M62.342154,27.5283262 C62.2123046,27.6799094 62.0279795,27.7555846 61.7889439,27.7555846 C61.5752677,27.7555846 61.413719,27.6936474 61.3038284,27.5697729 C61.1939378,27.4458985 61.1392273,27.2666065 61.1392273,27.031897 L61.1392273,25.766608 L61.5813727,25.766608 L61.5813727,27.0265415 C61.5813727,27.2742904 61.6851583,27.3981649 61.8927295,27.3981649 C62.107345,27.3981649 62.252457,27.3217912 62.3275958,27.1690437 L62.3275958,25.766608 L62.7699761,25.766608 L62.7699761,27.7194934 L62.35319,27.7194934 L62.342154,27.5283262 Z M64.9485344,26.7629591 C64.9485344,27.0661255 64.8804398,27.3073547 64.7437809,27.4866466 C64.6073569,27.6659386 64.4195096,27.7555846 64.180474,27.7555846 C63.9498915,27.7555846 63.7704974,27.6731569 63.6418221,27.5083014 L63.6199848,27.7194934 L63.2194006,27.7194934 L63.2194006,24.9472204 L63.6617808,24.9472204 L63.6617808,25.9542824 C63.7892822,25.8050277 63.9609276,25.7305167 64.1769519,25.7305167 C64.4171615,25.7305167 64.605948,25.8189985 64.7430765,25.9957291 C64.880205,26.1726926 64.9485344,26.4199758 64.9485344,26.7375788 L64.9485344,26.7629591 Z M64.506389,26.725005 C64.506389,26.5133474 64.4688195,26.3543131 64.3934458,26.2486007 C64.3183069,26.1426554 64.2091207,26.0897992 64.0658872,26.0897992 C63.874283,26.0897992 63.7395026,26.1726926 63.6617808,26.3387123 L63.6617808,27.1436634 C63.7406767,27.3134087 63.8766311,27.3981649 64.0696442,27.3981649 C64.2079467,27.3981649 64.31455,27.3471715 64.3899237,27.2449518 C64.4650626,27.1424992 64.5040409,26.987889 64.506389,26.7808882 L64.506389,26.725005 Z M65.3472402,27.7194934 L65.7896204,27.7194934 L65.7896204,24.9472204 L65.3472402,24.9472204 L65.3472402,27.7194934 Z M66.2991561,27.7194934 L66.7415363,27.7194934 L66.7415363,25.766608 L66.2991561,25.766608 L66.2991561,27.7194934 Z M66.2719182,25.2594678 C66.2719182,25.1919423 66.2935206,25.1360591 66.3364907,25.0915853 C66.3794607,25.0471116 66.4412155,25.0247583 66.5212854,25.0247583 C66.6013553,25.0247583 66.6633449,25.0471116 66.7070194,25.0915853 C66.7506939,25.1360591 66.7725311,25.1919423 66.7725311,25.2594678 C66.7725311,25.3255963 66.7506939,25.3807809 66.7070194,25.4245561 C66.6633449,25.4685642 66.6013553,25.4904518 66.5212854,25.4904518 C66.4412155,25.4904518 66.3794607,25.4685642 66.3364907,25.4245561 C66.2935206,25.3807809 66.2719182,25.3255963 66.2719182,25.2594678 Z M68.0320468,27.405616 C68.1424071,27.405616 68.2339826,27.373716 68.3067734,27.309916 C68.3795642,27.246116 68.4183077,27.1671809 68.4232387,27.0733437 L68.8400247,27.0733437 C68.8353286,27.1948897 68.7970547,27.3082861 68.7254379,27.4135328 C68.6538212,27.5187795 68.556845,27.6021386 68.4342747,27.6636101 C68.3117044,27.7250817 68.1795069,27.7555846 68.0374474,27.7555846 C67.7620164,27.7555846 67.543644,27.6671028 67.3820954,27.4903722 C67.2207816,27.3134087 67.1400072,27.0691525 67.1400072,26.7576036 L67.1400072,26.7124313 C67.1400072,26.4150861 67.2200771,26.1773496 67.3804517,25.9985233 C67.5405915,25.8199299 67.7589639,25.7305167 68.035569,25.7305167 C68.2696736,25.7305167 68.4605733,25.7982751 68.6080334,25.9335591 C68.7554935,26.068843 68.8327457,26.2467379 68.8400247,26.4670109 L68.4232387,26.4670109 C68.4183077,26.3550116 68.379799,26.2630372 68.3077126,26.1908547 C68.2356263,26.1186722 68.1435811,26.0825809 68.0320468,26.0825809 C67.8888133,26.0825809 67.778453,26.1340401 67.7007313,26.2367255 C67.6230095,26.3396437 67.5835615,26.4958839 67.5823875,26.7052131 L67.5823875,26.7755328 C67.5823875,26.9874233 67.6208962,27.1452934 67.6979135,27.2493758 C67.7749309,27.3534583 67.8864652,27.405616 68.0320468,27.405616 Z M69.2021003,27.7194934 L69.6444805,27.7194934 L69.6444805,25.766608 L69.2021003,25.766608 L69.2021003,27.7194934 Z M69.1750973,25.2594678 C69.1750973,25.1919423 69.1964649,25.1360591 69.2396697,25.0915853 C69.2826398,25.0471116 69.3441598,25.0247583 69.4244645,25.0247583 C69.5045343,25.0247583 69.5662891,25.0471116 69.6099636,25.0915853 C69.6536381,25.1360591 69.6754753,25.1919423 69.6754753,25.2594678 C69.6754753,25.3255963 69.6536381,25.3807809 69.6099636,25.4245561 C69.5662891,25.4685642 69.5045343,25.4904518 69.4244645,25.4904518 C69.3441598,25.4904518 69.2826398,25.4685642 69.2396697,25.4245561 C69.1964649,25.3807809 69.1750973,25.3255963 69.1750973,25.2594678 Z M70.0431863,26.7287306 C70.0431863,26.4278926 70.113629,26.1861977 70.2542796,26.0038788 C70.3951651,25.8215598 70.5837167,25.7305167 70.8204042,25.7305167 C71.0291495,25.7305167 71.1977424,25.8026992 71.3264177,25.9470642 L71.3264177,24.9472204 L71.768798,24.9472204 L71.768798,27.7194934 L71.3682137,27.7194934 L71.3463765,27.5173824 C71.214179,27.6761839 71.0376026,27.7555846 70.8166473,27.7555846 C70.5862996,27.7555846 70.3996264,27.6636101 70.2570973,27.4794284 C70.1145682,27.2954795 70.0431863,27.0451693 70.0431863,26.7287306 Z M70.4855665,26.7664518 C70.4855665,26.96507 70.5240752,27.1199131 70.6010926,27.2312138 C70.67811,27.3425145 70.787531,27.3981649 70.9295904,27.3981649 C71.1103934,27.3981649 71.2425909,27.3182985 71.3264177,27.1580999 L71.3264177,26.3242758 C71.2451738,26.1678028 71.1141504,26.0897992 70.9333474,26.0897992 C70.7901139,26.0897992 70.6797536,26.1459153 70.6020318,26.2583802 C70.52431,26.371078 70.4855665,26.5403576 70.4855665,26.7664518 Z M73.4068259,27.7194934 C73.3873367,27.6822379 73.3704305,27.6214649 73.3558723,27.5371744 C73.2149869,27.6829364 73.0428719,27.7555846 72.8388228,27.7555846 C72.6411136,27.7555846 72.4797998,27.6997014 72.3548814,27.5877021 C72.2297281,27.4759357 72.1672689,27.3376247 72.1672689,27.1727693 C72.1672689,26.9646043 72.2452255,26.8046386 72.4011387,26.6935707 C72.5570519,26.5820372 72.7801205,26.5263868 73.0701097,26.5263868 L73.3413142,26.5263868 L73.3413142,26.3983211 C73.3413142,26.2972656 73.3126675,26.2164678 73.2556089,26.1556948 C73.1987851,26.0949218 73.1119057,26.0644189 72.9954404,26.0644189 C72.8947074,26.0644189 72.8122894,26.0893335 72.7479517,26.1393955 C72.683614,26.1892247 72.6514452,26.2527919 72.6514452,26.3298642 L72.2090649,26.3298642 C72.2090649,26.2227547 72.2449907,26.1223977 72.3166075,26.0292591 C72.3882242,25.9358875 72.4854352,25.8630065 72.6087099,25.8099174 C72.7317499,25.7570612 72.869348,25.7305167 73.0210346,25.7305167 C73.2513823,25.7305167 73.4352378,25.7880299 73.5723663,25.9028233 C73.7094947,26.0178496 73.7799375,26.1794452 73.7836944,26.3876101 L73.7836944,27.2682364 C73.7836944,27.4440357 73.8083494,27.5842094 73.8581289,27.6887576 L73.8581289,27.7194934 L73.4068259,27.7194934 Z M72.9207712,27.4037532 C73.0081201,27.4037532 73.0903033,27.3825642 73.1675555,27.3404189 C73.2445728,27.2985065 73.3025707,27.2419247 73.3413142,27.1709065 L73.3413142,26.802543 L73.1027482,26.802543 C72.9390863,26.802543 72.8158115,26.8309503 72.7333935,26.887532 C72.6509756,26.9441138 72.6096492,27.0239802 72.6096492,27.127597 C72.6096492,27.2116547 72.6378263,27.2789474 72.6941804,27.3287766 C72.7505346,27.3788386 72.8261431,27.4037532 72.9207712,27.4037532 Z M74.1640851,26.7287306 C74.1640851,26.4278926 74.234293,26.1861977 74.3751784,26.0038788 C74.515829,25.8215598 74.7046155,25.7305167 74.9410682,25.7305167 C75.1498134,25.7305167 75.3186411,25.8026992 75.4470817,25.9470642 L75.4470817,24.9472204 L75.8894619,24.9472204 L75.8894619,27.7194934 L75.4891125,27.7194934 L75.4672753,27.5173824 C75.334843,27.6761839 75.1585014,27.7555846 74.9375461,27.7555846 C74.7069636,27.7555846 74.5205252,27.6636101 74.3777613,27.4794284 C74.2352322,27.2954795 74.1640851,27.0451693 74.1640851,26.7287306 Z M74.6062305,26.7664518 C74.6062305,26.96507 74.6447392,27.1199131 74.7217565,27.2312138 C74.7990087,27.3425145 74.9084297,27.3981649 75.0504892,27.3981649 C75.2312922,27.3981649 75.3634897,27.3182985 75.4470817,27.1580999 L75.4470817,26.3242758 C75.3658378,26.1678028 75.2348143,26.0897992 75.0540113,26.0897992 C74.9107778,26.0897992 74.8004176,26.1459153 74.7226958,26.2583802 C74.6452088,26.371078 74.6062305,26.5403576 74.6062305,26.7664518 Z M45.6646302,19.0768287 C45.7550316,19.0318893 45.8909861,19.009536 46.0720239,19.009536 C46.2528268,19.009536 46.4113229,19.0805542 46.5470426,19.2225907 C46.6827622,19.3648601 46.750622,19.5255243 46.750622,19.7050491 C46.750622,20.0340615 46.6073885,20.273428 46.3206866,20.4231484 C45.7475178,20.7521608 45.1330225,21.0213316 44.4767312,21.2308936 C43.8206747,21.4402228 43.0286638,21.5450039 42.1009333,21.5450039 C41.1734375,21.5450039 40.3135668,21.3952834 39.5215559,21.0963082 C38.7297798,20.7971002 38.0471899,20.3633068 37.474021,19.794928 C36.237047,18.5980958 35.6185599,16.9828382 35.6185599,14.9484564 C35.6185599,12.9289769 36.237047,11.3134864 37.474021,10.1019849 C38.6656769,8.93519 40.2116597,8.35190898 42.1122041,8.35190898 C43.0324208,8.35190898 43.8206747,8.46414109 44.4767312,8.68837248 C45.1330225,8.91283672 45.6345746,9.11844036 45.9813876,9.30541628 C46.3284353,9.49239219 46.5432856,9.64211263 46.6261732,9.7541119 C46.7092956,9.86634401 46.750622,10.0123389 46.750622,10.1916309 C46.750622,10.3711557 46.6827622,10.5320528 46.5470426,10.6740893 C46.4113229,10.8161258 46.2565838,10.8873769 46.0832947,10.8873769 C45.9097708,10.8873769 45.7702942,10.8647907 45.6646302,10.8200842 C45.166835,10.5506805 44.657769,10.3376258 44.1374321,10.1804542 C43.6168605,10.0235155 42.9720748,9.9450462 42.2028404,9.9450462 C41.433606,9.9450462 40.7359883,10.0759061 40.1099874,10.3376258 C39.4839864,10.5993455 38.9596578,10.9546696 38.5374712,11.4033652 C37.707656,12.3007564 37.3004971,13.4824535 37.3155249,14.9484564 C37.3155249,16.4142265 37.7229186,17.5959236 38.5374712,18.4935477 C39.4424252,19.4656827 40.6869132,19.9518666 42.2707002,19.9518666 C42.9948513,19.9518666 43.6168605,19.8733973 44.1374321,19.7162258 C44.657769,19.5592871 45.166835,19.3459995 45.6646302,19.0768287 Z M49.1038783,8.68837248 C49.1038783,8.44900606 49.1867659,8.2508535 49.3527759,8.09391482 C49.518551,7.93674328 49.7223653,7.85827394 49.9635142,7.85827394 C50.2048979,7.85827394 50.4047204,7.93674328 50.5632165,8.09391482 C50.7217126,8.2508535 50.8008432,8.44900606 50.8008432,8.68837248 L50.8008432,20.6250265 C50.8008432,20.8492579 50.7217126,21.0439177 50.5632165,21.2083075 C50.4047204,21.3729301 50.2048979,21.455125 49.9635142,21.455125 C49.7223653,21.455125 49.518551,21.3729301 49.3527759,21.2083075 C49.1867659,21.0439177 49.1038783,20.8492579 49.1038783,20.6250265 L49.1038783,8.68837248 Z M53.9230991,12.7496849 C53.9230991,12.4951834 54.0062215,12.2895798 54.1719967,12.1326411 C54.3380067,11.9754696 54.5415862,11.8970002 54.7829699,11.8970002 C55.0243536,11.8970002 55.2204191,11.9754696 55.3711665,12.1326411 C55.5221487,12.2895798 55.5975224,12.4951834 55.5975224,12.7496849 L55.5975224,20.6250265 C55.5975224,20.8492579 55.5221487,21.0439177 55.3711665,21.2083075 C55.2204191,21.3729301 55.0243536,21.455125 54.7829699,21.455125 C54.5415862,21.455125 54.3380067,21.3729301 54.1719967,21.2083075 C54.0062215,21.0439177 53.9230991,20.8492579 53.9230991,20.6250265 L53.9230991,12.7496849 Z M55.7785602,9.13730095 C55.7785602,9.40647175 55.6881587,9.63093599 55.507121,9.81022796 C55.3260832,9.98975277 55.0997273,10.0796316 54.828288,10.0796316 L54.71511,10.0796316 C54.4436708,10.0796316 54.2210718,9.98975277 54.0475479,9.81022796 C53.8742589,9.63093599 53.7873795,9.40647175 53.7873795,9.13730095 L53.7873795,9.0697754 C53.7873795,8.8006046 53.8780158,8.57637321 54.0590536,8.39684839 C54.2398565,8.21732358 54.4586986,8.12744474 54.71511,8.12744474 L54.828288,8.12744474 C55.0997273,8.12744474 55.3260832,8.21732358 55.507121,8.39684839 C55.6881587,8.57637321 55.7785602,8.8006046 55.7785602,9.0697754 L55.7785602,9.13730095 Z M63.086757,19.9742199 C63.7806177,19.9742199 64.436909,19.8098301 65.055396,19.4808177 C65.2664893,19.3611345 65.4625549,19.2975674 65.6435927,19.2898834 C65.8246305,19.2824323 65.9828917,19.3611345 66.1186114,19.5255243 C66.2545658,19.6901469 66.3224256,19.8808484 66.3224256,20.0976287 C66.3224256,20.3146418 66.1789573,20.5127944 65.8924903,20.6923192 C65.0175918,21.260698 64.0370292,21.5450039 62.9510373,21.5450039 C61.5783437,21.5450039 60.4169781,21.1186615 59.4667059,20.2659769 C58.4711155,19.3534506 57.9808343,18.1568513 57.995862,16.6759462 C57.995862,15.1952739 58.4861433,13.9986747 59.4667059,13.0861484 C60.4019503,12.2185615 61.5633159,11.7922192 62.9510373,11.8071214 C63.6902162,11.8071214 64.2971976,11.9007258 64.7724511,12.0877017 C65.2477046,12.2746776 65.624808,12.4616535 65.9037611,12.6486294 C66.1827142,12.8356053 66.3224256,13.041209 66.3224256,13.2656732 C66.3224256,13.4899046 66.2545658,13.6768805 66.1186114,13.8266009 C65.9828917,13.9760885 65.8471721,14.0508323 65.7114525,14.0508323 C65.5003592,14.0508323 65.2815171,13.9912236 65.055396,13.8715404 C64.4216464,13.5273929 63.7655899,13.3627703 63.086757,13.3779053 C62.0007651,13.3779053 61.1599139,13.6808389 60.5639686,14.2864732 C59.968258,14.8923404 59.6702853,15.688909 59.6702853,16.6759462 C59.6702853,17.6632163 59.968258,18.4597849 60.5639686,19.065652 C61.1599139,19.6715192 62.0007651,19.9742199 63.086757,19.9742199 Z M76.3457194,20.1537447 C76.4664112,20.3034652 76.5267572,20.4867155 76.5267572,20.7034958 C76.5267572,20.920509 76.4476265,21.0998009 76.2891304,21.2420703 C76.1308691,21.3841068 75.9535883,21.455125 75.7575227,21.455125 C75.4557931,21.455125 75.1993816,21.3428929 74.9882883,21.1186615 L71.7979378,16.8107645 L70.1913743,18.2690834 L70.1913743,20.6250265 C70.1913743,20.8492579 70.1084867,21.0439177 69.9424767,21.2083075 C69.7767015,21.3729301 69.580636,21.455125 69.35428,21.455125 C69.1279241,21.455125 68.9318586,21.3729301 68.7660834,21.2083075 C68.6000734,21.0439177 68.5171858,20.8492579 68.5171858,20.6250265 L68.5171858,8.68837248 C68.5171858,8.46414109 68.5963164,8.26971409 68.7545777,8.10509146 C68.9130738,7.94046883 69.1128963,7.85827394 69.35428,7.85827394 C69.580636,7.85827394 69.7767015,7.94046883 69.9424767,8.10509146 C70.1084867,8.26971409 70.1913743,8.46414109 70.1913743,8.68837248 L70.1913743,16.2048973 L74.6034363,12.166171 C74.7997366,12.0166834 75.0221008,11.9419396 75.2709984,11.9419396 C75.519896,11.9419396 75.7009337,12.0278601 75.8141117,12.1999338 C75.9272897,12.3717747 75.9836438,12.5252207 75.9836438,12.6598061 C75.9836438,12.9289769 75.8782146,13.1683433 75.6668864,13.3779053 L72.9971076,15.7562017 L76.3457194,20.1537447 Z" id="logo-click" fill="#A6A8A9"></path>
    </g>
</svg>