<?xml version="1.0" encoding="UTF-8" standalone="no"?>
<svg width="208px" height="66px" viewBox="0 0 208 66" version="1.1" xmlns="http://www.w3.org/2000/svg" xmlns:xlink="http://www.w3.org/1999/xlink">
    <!-- Generator: Sketch 39.1 (31720) - http://www.bohemiancoding.com/sketch -->
    <title>logo-header</title>
    <desc>Created with Sketch.</desc>
    <defs></defs>
    <g id="Symbols" stroke="none" stroke-width="1" fill="none" fill-rule="evenodd">
        <g id="logo-header">
            <g id="Page-1-Copy">
                <polygon id="Fill-1" fill="#39C7F9" points="5.70784064 23.4834838 3.9948203 29.4755728 22.3913082 28.7549663 22.3913082 22.0454245"></polygon>
                <polygon id="Fill-2" fill="#39C7F9" points="3.28638687 31.953965 1.63413966 37.7337089 12.6838317 37.8605553 12.6838317 31.6303666"></polygon>
                <polygon id="Fill-3" fill="#39C7F9" points="5.52411743 62.774004 34.2630545 64.8548801 34.2630545 58.1453383 3.91540652 57.146686"></polygon>
                <polygon id="Fill-4" fill="#39C7F9" points="1.72341574 49.4788235 3.25802608 54.8468423 43.9705133 55.2699555 43.9705133 49.0397668"></polygon>
                <polygon id="Fill-5" fill="#39C7F9" points="0.437086735 41.9210404 -5.33097621e-05 43.4500296 1.08213485 47.235097 34.263019 45.9247601 34.263019 39.6945714"></polygon>
                <polygon id="Fill-6" fill="#2D73EA" points="48.5971609 15.2649084 31.3708222 11.5019164 31.3708222 18.2114582 50.3396793 21.3605418"></polygon>
                <polygon id="Fill-7" fill="#2D73EA" points="51.1303519 24.126283 22.3914149 22.045407 22.3914149 28.7549488 52.7390628 29.7536011"></polygon>
                <polygon id="Fill-8" fill="#2D73EA" points="53.3964433 32.0533747 12.6837783 31.6302615 12.6837783 37.8604501 54.9310536 37.4213935"></polygon>
                <polygon id="Fill-9" fill="#2D73EA" points="34.2630901 58.1454084 34.2630901 64.8549501 50.9465576 63.4167156 52.659578 57.4246267"></polygon>
                <polygon id="Fill-10" fill="#2D73EA" points="55.0202764 49.1665782 43.9705844 49.0397318 43.9705844 55.2699205 53.3680292 54.9463221"></polygon>
                <polygon id="Fill-11" fill="#2D73EA" points="34.2630901 45.9247426 55.6593183 46.9307534 56.6544338 43.4500121 56.0692703 41.4033005 34.2630901 39.6945539"></polygon>
                <polygon id="Fill-12" fill="#39C7F9" points="38.6515496 3.50404313e-05 10.7044402 6.00491375 8.88604423 12.3661536 38.6515496 7.18875472"></polygon>
                <polygon id="Fill-13" fill="#2D73EA" points="38.6515496 3.50404313e-05 38.6515496 7.18875472 47.2537905 10.5656011 45.1377483 3.16366038"></polygon>
                <polygon id="Fill-14" fill="#39C7F9" points="8.16874362 14.874996 6.43777566 20.9299825 31.3709289 18.2113706 31.3709289 11.5018288"></polygon>
            </g>
            <g id="Group-42" transform="translate(70.000000, 0.322644)" fill="#FFFFFF">
                <path d="M23.2178868,44.7410682 C32.5137226,44.7410682 37.9630056,40.2831026 37.9630056,32.7307843 C37.9630056,29.2693052 36.78767,26.4371858 34.4904233,24.444213 C32.9411173,23.1330466 31.5520844,22.5036868 28.9342916,21.9267736 C31.1246896,21.1400738 32.0863278,20.6156072 33.2616634,19.6191208 C35.2917884,17.8359345 36.3602753,15.3184951 36.3602753,12.1192492 C36.3602753,5.19629086 31.2849627,1.10545182 22.6302191,1.10545182 L8.63304112,1.10545182 C4.25224498,1.10545182 3.50430417,1.10545182 0.779662665,0.948111862 C1.10020872,3.46555127 1.20705741,5.7207574 1.20705741,8.50043008 L1.20705741,37.18875 C1.20705741,40.8600158 1.10020872,42.643202 0.779662665,44.8984081 C3.07690942,44.7935148 4.62621538,44.7410682 8.68646547,44.7410682 L23.2178868,44.7410682 Z M11.6782287,17.9408278 L11.6782287,9.70670312 L20.9740644,9.70670312 C24.019252,9.70670312 25.6754066,11.1752094 25.6754066,13.7450955 C25.6754066,16.3149816 23.9124033,17.9408278 21.0809131,17.9408278 L11.6782287,17.9408278 Z M11.6782287,26.3322925 L21.4548835,26.3322925 C24.8740415,26.3322925 26.9041665,28.1154788 26.9041665,31.1573847 C26.9041665,34.2517373 24.8740415,36.0873702 21.5083078,36.0873702 L11.6782287,36.0873702 L11.6782287,26.3322925 Z M88.9832534,44.7410682 C86.6860066,42.643202 84.3353355,40.4404425 83.0531513,39.1292762 L79.0463255,35.0908838 C81.9846644,32.0489778 83.7476677,29.4790918 86.4188849,24.0246397 L78.2983847,19.3044409 C76.9627761,23.2903866 75.5737432,25.650486 72.742253,28.7972853 L66.2244831,22.2414535 C73.1696478,19.0422076 76.0545623,15.5807284 76.0545623,10.4934029 C76.0545623,4.14735777 70.4450063,0.0565187396 61.7902627,0.0565187396 C52.814973,0.0565187396 47.2054169,4.19980443 47.2054169,10.8080829 C47.2054169,13.9024355 48.1136308,15.8954083 50.7848479,18.9373143 L52.0136078,20.3009273 C48.7547229,21.9267736 47.36569,22.92326 45.7629597,24.6015529 C43.4122886,27.014099 42.1835287,30.056005 42.1835287,33.3076975 C42.1835287,36.5593901 43.4657129,39.758636 45.5492623,41.8565022 C48.1136308,44.3739416 52.3875782,45.7900013 57.5163152,45.7900013 C60.7752001,45.7900013 63.873812,45.2655347 66.7053022,44.2690483 C68.4683056,43.6396884 69.4299437,43.1152219 71.6737662,41.6991622 C72.421707,42.5383087 73.1696478,43.5347951 73.9175886,44.7410682 L88.9832534,44.7410682 Z M60.4012297,16.3149816 L59.3327429,15.2660485 C58.1574073,14.0597754 57.4628909,12.6437158 57.4628909,11.4374427 C57.4628909,9.28712989 59.1724698,7.92351688 61.8971113,7.92351688 C64.5149042,7.92351688 66.2244831,9.18223658 66.2244831,11.1752094 C66.2244831,12.8535024 64.9957232,14.1122221 61.8971113,15.6331751 L60.4012297,16.3149816 Z M65.5299667,34.9335438 C62.7519008,36.7691767 60.7217758,37.4509832 58.424529,37.4509832 C54.9519467,37.4509832 52.6012756,35.510457 52.6012756,32.5734444 C52.6012756,31.1049381 53.1889434,29.7937717 54.3642789,28.7448386 C55.1122197,28.0630321 55.8067362,27.5910122 57.6231639,26.5420791 L65.5299667,34.9335438 Z M116.550214,18.3604011 L127.715902,6.87458379 C128.67754,5.93054402 128.67754,5.93054402 131.455606,3.203318 C132.203547,2.46906484 132.577517,2.0494916 133.539156,1.10545182 L119.114583,1.10545182 C117.939247,3.04597803 116.550214,4.82916428 114.466665,6.9794771 L103.835221,18.1506145 L103.835221,8.86755666 C103.835221,5.56341744 103.942069,3.83267785 104.262616,1.10545182 L92.9366548,1.10545182 C93.2572008,3.62289123 93.3640495,5.66831075 93.3640495,8.86755666 L93.3640495,36.9789633 C93.3640495,40.1257626 93.2572008,42.0662888 92.9366548,44.7410682 L104.262616,44.7410682 C103.942069,41.9613955 103.835221,40.2306559 103.835221,36.9789633 L103.835221,30.3706849 L109.231079,25.0735728 L117.511853,38.0803431 C118.900886,40.2831026 120.450192,43.0627752 121.198132,44.7410682 L135.088462,44.7410682 C133.272034,42.5383087 132.577517,41.5942689 129.425481,36.9789633 L116.550214,18.3604011 Z" id="B&amp;K-Copy-3"></path>
                <path d="M11.472571,55.8470888 C11.2923372,55.0399907 11.0566469,54.5338444 10.6129946,53.9729795 C9.71182592,52.7828517 8.31154838,52.180948 6.52307509,52.180948 C4.9009714,52.180948 3.50069386,52.6870943 2.5440686,53.6036295 C1.44880201,54.6706407 0.86650838,56.2437981 0.86650838,58.1042278 C0.86650838,59.9372981 1.44880201,61.5378148 2.47474793,62.5637871 C3.45910145,63.5487204 4.88710726,64.0685464 6.57853162,64.0685464 C8.25609185,64.0685464 9.60091285,63.5487204 10.4604892,62.5774667 C11.0427828,61.9071648 11.3477937,61.236863 11.6112123,60.0740944 L8.72747241,59.6500259 C8.6442876,60.2245704 8.54723866,60.498163 8.31154838,60.8264741 C7.90948849,61.3736593 7.25787419,61.6882908 6.49534682,61.6882908 C4.77619419,61.6882908 3.75024827,60.3340074 3.75024827,58.1042278 C3.75024827,55.8470888 4.73460179,54.5338444 6.42602615,54.5338444 C7.61834168,54.5338444 8.35314078,55.1494277 8.61655933,56.394274 L11.472571,55.8470888 Z M18.1828118,52.180948 C14.7722349,52.180948 12.5817017,54.4928055 12.5817017,58.1042278 C12.5817017,61.7293297 14.7722349,64.0685464 18.1689477,64.0685464 C21.5379323,64.0685464 23.7700579,61.6746111 23.7700579,58.0631889 C23.7700579,54.4791258 21.5933888,52.180948 18.1828118,52.180948 L18.1828118,52.180948 Z M18.1828118,61.7019704 C16.4913875,61.7019704 15.4515774,60.3203278 15.4515774,58.0905481 C15.4515774,55.8881277 16.4913875,54.5338444 18.1828118,54.5338444 C19.8603721,54.5338444 20.886318,55.8744481 20.886318,58.0905481 C20.886318,60.3340074 19.8603721,61.7019704 18.1828118,61.7019704 L18.1828118,61.7019704 Z M29.1493419,54.1371351 C28.6086407,53.3437166 28.3036297,52.7965314 28.1649884,52.4271814 L25.1564713,52.4271814 C25.2396561,53.0564443 25.2673844,53.6720277 25.2673844,54.4654462 L25.2673844,61.6609315 C25.2673844,62.6732241 25.2396561,63.2751278 25.1564713,63.8086334 L28.1095319,63.8086334 C28.026347,63.2204093 27.9986188,62.6185056 27.9986188,61.6746111 L27.9986188,58.6103741 C27.9986188,57.9400722 27.9708905,57.1876926 27.9015698,56.5721092 C28.2897656,57.2971296 28.5254559,57.7075185 28.8997875,58.2547037 L31.4646523,62.0713204 C31.9360329,62.7826612 32.2549079,63.2888075 32.5044624,63.8086334 L35.5407077,63.8086334 C35.4713871,63.2340889 35.4297946,62.604826 35.4297946,61.7703685 L35.4297946,54.5064851 C35.4297946,53.6173092 35.4575229,53.0427647 35.5407077,52.4271814 L32.5876472,52.4271814 C32.670832,53.0564443 32.6985602,53.6036295 32.6985602,54.5064851 L32.6985602,57.6254407 C32.6985602,58.3915 32.7262885,59.020763 32.781745,59.6500259 C32.4490058,59.0481222 32.1855873,58.6103741 31.7835274,58.02215 L29.1493419,54.1371351 Z M36.9271211,60.3750463 C37.0241701,61.0043093 37.0934907,61.3189408 37.2321321,61.6472519 C37.5232789,62.4269908 38.0362519,63.0152149 38.7294586,63.3982445 C39.4781218,63.822313 40.6427091,64.0685464 41.8211605,64.0685464 C43.4432641,64.0685464 44.6633079,63.6718371 45.4674277,62.9057778 C46.1051779,62.2901945 46.4379171,61.4146982 46.4379171,60.3887259 C46.4379171,59.1302 45.9388083,58.2136648 44.9405906,57.5980814 C44.4137535,57.2697703 43.7482751,57.0372166 42.6946009,56.8183425 C41.0586331,56.4900314 41.0586331,56.4900314 40.7813504,56.3669148 C40.3376981,56.1617203 40.1297361,55.8744481 40.1297361,55.4914185 C40.1297361,54.8621555 40.7536221,54.4107277 41.5993343,54.4107277 C42.6530085,54.4107277 43.1521173,54.7800777 43.3184869,55.6692536 L46.2576834,55.3546222 C46.0774496,54.5748833 45.91108,54.1644944 45.5644767,53.7130666 C44.8158134,52.6870943 43.4709924,52.1535888 41.7102474,52.1535888 C38.979013,52.1535888 37.2598603,53.4805129 37.2598603,55.5871759 C37.2598603,56.6952259 37.7312409,57.6117611 38.6046814,58.2136648 C39.1176543,58.5693352 39.5613066,58.7334907 40.8368069,59.0070833 C42.2786769,59.3353944 42.6252802,59.4311518 42.9164271,59.5679481 C43.2768945,59.7321037 43.4987207,60.1014537 43.4987207,60.5255222 C43.4987207,61.2915815 42.8609705,61.7566889 41.7934322,61.7566889 C41.0863614,61.7566889 40.5040677,61.5241352 40.1713285,61.1137463 C39.9633665,60.8401537 39.8663176,60.5939204 39.810861,60.1014537 L36.9271211,60.3750463 Z M53.7859082,54.8484758 L55.3525553,54.8484758 C56.350773,54.8484758 56.8914742,54.8758351 57.5153602,54.9442333 L57.5153602,52.331424 C56.8776101,52.3998221 56.3230447,52.4271814 55.3525553,52.4271814 L49.2800646,52.4271814 C48.4343524,52.4271814 47.671825,52.3861425 47.2143086,52.331424 L47.2143086,54.9442333 C48.1986621,54.8621555 48.4343524,54.8484758 49.3077929,54.8484758 L50.9437607,54.8484758 L50.9437607,61.7430093 C50.9437607,62.604826 50.9160324,63.1656908 50.8328476,63.8086334 L53.8968212,63.8086334 C53.8136364,63.1656908 53.7859082,62.5637871 53.7859082,61.7430093 L53.7859082,54.8484758 Z M68.8284937,63.8086334 C68.4818903,63.083613 68.3155207,62.7416223 68.1630152,62.3585926 C67.5391292,60.8811926 67.3450313,60.4160852 67.1370693,59.978337 C66.693417,59.0070833 66.3745419,58.6924518 65.6674711,58.4735778 C66.3468137,58.2547037 66.6379605,58.1042278 66.9845638,57.7895963 C67.525265,57.28345 67.8025477,56.5173907 67.8025477,55.546137 C67.8025477,53.5762703 66.4993191,52.4271814 64.2533294,52.4271814 L60.6486545,52.4271814 C59.7058934,52.4271814 59.1929205,52.4135017 58.5828986,52.3861425 C58.6660834,53.0427647 58.6938116,53.548911 58.6938116,54.3970481 L58.6938116,61.7566889 C58.6938116,62.7689815 58.6660834,63.1793704 58.5828986,63.8086334 L61.5636874,63.8086334 C61.4805026,63.1793704 61.4527743,62.6732241 61.4527743,61.7430093 L61.4527743,59.49955 L62.866916,59.49955 C63.3105683,59.49955 63.6571716,59.608987 63.9483185,59.8689 C64.2949218,60.1698519 64.4612914,60.4844833 64.9049437,61.6746111 C65.3347319,62.8100204 65.5011015,63.3708852 65.5842863,63.8086334 L68.8284937,63.8086334 Z M61.4527743,57.1603333 L61.4527743,54.7253592 L63.6294434,54.7253592 C64.4890197,54.7253592 64.932672,55.1220684 64.932672,55.8881277 C64.932672,56.6678666 64.4335631,57.1603333 63.6155792,57.1603333 L61.4527743,57.1603333 Z M77.5906264,52.4271814 C77.6738112,53.0427647 77.7015395,53.4668332 77.7015395,54.4928055 L77.7015395,59.1985981 C77.7015395,60.9222315 76.9112838,61.7430093 75.2475877,61.7430093 C73.625484,61.7430093 72.8352284,60.9222315 72.8352284,59.1985981 L72.8352284,54.4928055 C72.8352284,53.4805129 72.8629567,52.9333277 72.9461415,52.4271814 L69.9514885,52.4271814 C70.0346733,52.9470073 70.0624016,53.548911 70.0624016,54.4928055 L70.0624016,59.1712389 C70.0624016,60.7033574 70.4783256,61.8934852 71.2824454,62.7416223 C72.1142934,63.6034389 73.514571,64.082226 75.2337236,64.082226 C78.5749799,64.082226 80.4743663,62.3175537 80.4743663,59.1985981 L80.4743663,54.4928055 C80.4743663,53.5078721 80.5020946,53.0154054 80.5852794,52.4271814 L77.5906264,52.4271814 Z M92.5361629,55.8470888 C92.3559292,55.0399907 92.1202389,54.5338444 91.6765866,53.9729795 C90.7754179,52.7828517 89.3751404,52.180948 87.5866671,52.180948 C85.9645634,52.180948 84.5642858,52.6870943 83.6076606,53.6036295 C82.512394,54.6706407 81.9301004,56.2437981 81.9301004,58.1042278 C81.9301004,59.9372981 82.512394,61.5378148 83.5383399,62.5637871 C84.5226934,63.5487204 85.9506992,64.0685464 87.6421236,64.0685464 C89.3196838,64.0685464 90.6645048,63.5487204 91.5240811,62.5774667 C92.1063748,61.9071648 92.4113857,61.236863 92.6748043,60.0740944 L89.7910644,59.6500259 C89.7078796,60.2245704 89.6108306,60.498163 89.3751404,60.8264741 C88.9730805,61.3736593 88.3214662,61.6882908 87.5589388,61.6882908 C85.8397862,61.6882908 84.8138403,60.3340074 84.8138403,58.1042278 C84.8138403,55.8470888 85.7981938,54.5338444 87.4896181,54.5338444 C88.6819337,54.5338444 89.4167328,55.1494277 89.6801513,56.394274 L92.5361629,55.8470888 Z M99.9118823,54.8484758 L101.478529,54.8484758 C102.476747,54.8484758 103.017448,54.8758351 103.641334,54.9442333 L103.641334,52.331424 C103.003584,52.3998221 102.449019,52.4271814 101.478529,52.4271814 L95.4060387,52.4271814 C94.5603265,52.4271814 93.7977991,52.3861425 93.3402827,52.331424 L93.3402827,54.9442333 C94.3246362,54.8621555 94.5603265,54.8484758 95.433767,54.8484758 L97.0697348,54.8484758 L97.0697348,61.7430093 C97.0697348,62.604826 97.0420065,63.1656908 96.9588217,63.8086334 L100.022795,63.8086334 C99.9396105,63.1656908 99.9118823,62.5637871 99.9118823,61.7430093 L99.9118823,54.8484758 Z M109.963379,52.180948 C106.552802,52.180948 104.362269,54.4928055 104.362269,58.1042278 C104.362269,61.7293297 106.552802,64.0685464 109.949515,64.0685464 C113.3185,64.0685464 115.550626,61.6746111 115.550626,58.0631889 C115.550626,54.4791258 113.373956,52.180948 109.963379,52.180948 L109.963379,52.180948 Z M109.963379,61.7019704 C108.271955,61.7019704 107.232145,60.3203278 107.232145,58.0905481 C107.232145,55.8881277 108.271955,54.5338444 109.963379,54.5338444 C111.64094,54.5338444 112.666886,55.8744481 112.666886,58.0905481 C112.666886,60.3340074 111.64094,61.7019704 109.963379,61.7019704 L109.963379,61.7019704 Z M127.182634,63.8086334 C126.836031,63.083613 126.669661,62.7416223 126.517156,62.3585926 C125.89327,60.8811926 125.699172,60.4160852 125.49121,59.978337 C125.047557,59.0070833 124.728682,58.6924518 124.021611,58.4735778 C124.700954,58.2547037 124.992101,58.1042278 125.338704,57.7895963 C125.879405,57.28345 126.156688,56.5173907 126.156688,55.546137 C126.156688,53.5762703 124.853459,52.4271814 122.60747,52.4271814 L119.002795,52.4271814 C118.060034,52.4271814 117.547061,52.4135017 116.937039,52.3861425 C117.020224,53.0427647 117.047952,53.548911 117.047952,54.3970481 L117.047952,61.7566889 C117.047952,62.7689815 117.020224,63.1793704 116.937039,63.8086334 L119.917828,63.8086334 C119.834643,63.1793704 119.806915,62.6732241 119.806915,61.7430093 L119.806915,59.49955 L121.221056,59.49955 C121.664709,59.49955 122.011312,59.608987 122.302459,59.8689 C122.649062,60.1698519 122.815432,60.4844833 123.259084,61.6746111 C123.688872,62.8100204 123.855242,63.3708852 123.938427,63.8086334 L127.182634,63.8086334 Z M119.806915,57.1603333 L119.806915,54.7253592 L121.983584,54.7253592 C122.84316,54.7253592 123.286812,55.1220684 123.286812,55.8881277 C123.286812,56.6678666 122.787704,57.1603333 121.96972,57.1603333 L119.806915,57.1603333 Z M127.986754,60.3750463 C128.083803,61.0043093 128.153123,61.3189408 128.291765,61.6472519 C128.582912,62.4269908 129.095885,63.0152149 129.789091,63.3982445 C130.537754,63.822313 131.702342,64.0685464 132.880793,64.0685464 C134.502897,64.0685464 135.722941,63.6718371 136.52706,62.9057778 C137.164811,62.2901945 137.49755,61.4146982 137.49755,60.3887259 C137.49755,59.1302 136.998441,58.2136648 136.000223,57.5980814 C135.473386,57.2697703 134.807908,57.0372166 133.754234,56.8183425 C132.118266,56.4900314 132.118266,56.4900314 131.840983,56.3669148 C131.397331,56.1617203 131.189369,55.8744481 131.189369,55.4914185 C131.189369,54.8621555 131.813255,54.4107277 132.658967,54.4107277 C133.712641,54.4107277 134.21175,54.7800777 134.37812,55.6692536 L137.317316,55.3546222 C137.137082,54.5748833 136.970713,54.1644944 136.624109,53.7130666 C135.875446,52.6870943 134.530625,52.1535888 132.76988,52.1535888 C130.038646,52.1535888 128.319493,53.4805129 128.319493,55.5871759 C128.319493,56.6952259 128.790874,57.6117611 129.664314,58.2136648 C130.177287,58.5693352 130.620939,58.7334907 131.89644,59.0070833 C133.33831,59.3353944 133.684913,59.4311518 133.97606,59.5679481 C134.336527,59.7321037 134.558353,60.1014537 134.558353,60.5255222 C134.558353,61.2915815 133.920603,61.7566889 132.853065,61.7566889 C132.145994,61.7566889 131.5637,61.5241352 131.230961,61.1137463 C131.022999,60.8401537 130.92595,60.5939204 130.870494,60.1014537 L127.986754,60.3750463 Z" id="constructors-copy"></path>
            </g>
        </g>
    </g>
</svg>