<svg xmlns="http://www.w3.org/2000/svg" viewBox="0 0 77 32">
  <title>logo-click</title>
  <path fill="#A6A8A9" fill-rule="evenodd" d="M24.587 15.724c0 2.793-5.032 6.986-8.923 6.986-3.89 0-7.044-3.128-7.044-6.986 0-3.858 3.154-6.985 7.044-6.985 3.89 0 8.923 4.46 8.923 6.98zm.593 4.92c-1.787 1.677-2.21 2.066-2.975 2.708-2.32 1.945-4.08 2.74-6.355 2.74-5.77 0-10.45-4.638-10.45-10.36 0-.234.01-.466.025-.696l.002-.025c.017-.22.04-.45.07-.67.68-5.07 5.055-8.98 10.353-8.98 2.276 0 4.035.8 6.355 2.74.765.64 1.188 1.03 2.975 2.71 1.082 1.02 2.792.97 3.817-.1 1.026-1.07.98-2.77-.103-3.78-1.875-1.76-2.326-2.17-3.203-2.91C22.48 1.32 19.58 0 15.85 0 7.33 0 .382 6.668.018 15.028c-.002.025 0 .05-.003.076-.007.204-.015.408-.015.613v.012c0 8.68 7.096 15.72 15.85 15.72 3.727 0 6.63-1.32 9.84-4.01.878-.74 1.33-1.15 3.204-2.91 1.082-1.02 1.13-2.72.103-3.79-1.025-1.08-2.735-1.12-3.817-.1zm13.253 4.448l.764 2.014.763-2.014h.595v2.627h-.458v-.87l.045-1.16-.783 2.02h-.33l-.78-2.03.04 1.15v.86h-.46v-2.62h.6zm3.49 2.664c-.28 0-.507-.088-.68-.263-.175-.175-.262-.408-.262-.7v-.054c0-.2.04-.37.12-.53.08-.16.18-.28.32-.36.14-.09.29-.13.46-.13.27 0 .48.08.62.25.15.17.22.41.22.72v.17h-1.29c.02.16.07.29.17.38.1.09.22.14.36.14.21 0 .37-.08.5-.25l.24.22c-.08.12-.18.21-.31.27-.13.06-.28.09-.44.09zm-.052-1.673c-.12 0-.21.04-.29.126-.07.08-.12.2-.14.35h.85v-.04c-.01-.15-.05-.26-.12-.34-.07-.08-.16-.11-.29-.11zm2.22.084c-.06-.01-.12-.014-.18-.014-.2 0-.34.077-.41.23v1.336h-.44v-1.96h.42l.01.21c.11-.17.26-.26.45-.26.07 0 .12.01.16.02v.41zm1.06 1.24c.11 0 .2-.033.28-.097.08-.064.11-.143.12-.237h.42c0 .122-.04.235-.11.34-.07.106-.17.19-.29.25-.12.062-.25.093-.4.093-.27 0-.49-.09-.65-.266-.16-.177-.24-.42-.24-.732v-.046c0-.297.08-.535.24-.713.16-.18.38-.27.66-.27.24 0 .43.06.57.2.15.13.23.31.23.53h-.41c0-.11-.04-.21-.11-.28-.07-.07-.16-.11-.27-.11-.14 0-.25.05-.33.15-.08.1-.11.26-.12.47v.07c0 .21.04.37.12.47.08.1.19.15.34.15zm2.32.312c-.02-.04-.03-.1-.05-.19-.14.14-.31.22-.51.22s-.36-.06-.48-.17c-.12-.11-.19-.25-.19-.42 0-.21.08-.37.24-.48.16-.11.38-.17.67-.17h.27v-.13c0-.1-.03-.19-.08-.25-.06-.06-.14-.09-.26-.09-.1 0-.18.02-.25.07s-.09.11-.09.19h-.44c0-.11.04-.21.11-.3s.17-.17.3-.22c.12-.06.26-.08.41-.08.23 0 .42.06.55.17.14.11.21.27.21.48v.88c0 .17.03.31.08.42v.03h-.45zm-.48-.32c.09 0 .17-.02.25-.07.08-.04.14-.1.18-.17v-.36h-.24c-.16 0-.28.02-.37.08-.08.05-.12.13-.12.24 0 .08.03.15.09.2.06.05.14.07.23.07zm1.25-.68c0-.3.07-.55.21-.73.14-.18.33-.28.57-.28.21 0 .38.07.51.21v-1h.45v2.78h-.4l-.02-.21c-.13.16-.31.24-.53.24-.23 0-.42-.1-.56-.28-.14-.19-.21-.44-.21-.75zm.44.03c0 .2.04.35.12.46.08.11.19.16.33.16.18 0 .32-.08.4-.24v-.83c-.08-.16-.21-.24-.39-.24-.14 0-.25.05-.33.17-.08.11-.11.28-.11.5zm2.62.99c-.28 0-.5-.09-.68-.27-.17-.18-.26-.41-.26-.7v-.06c0-.2.04-.37.12-.53.08-.15.18-.27.32-.36.14-.09.29-.13.46-.13.27 0 .48.08.63.25.15.17.22.41.22.72v.18h-1.3c.02.16.07.29.16.38.1.09.22.14.36.14.21 0 .37-.08.5-.24l.24.22c-.07.11-.18.2-.31.27-.13.06-.28.09-.44.09zm-.05-1.68c-.12 0-.22.04-.29.12-.07.08-.12.2-.14.35h.85v-.03c-.01-.15-.05-.26-.12-.34-.07-.08-.17-.11-.29-.11zm1.11.64c0-.19.04-.37.11-.52.08-.16.19-.27.33-.36.14-.08.3-.13.47-.13.27 0 .49.08.65.25.17.17.26.39.27.67v.1c0 .19-.03.36-.11.52-.07.15-.18.27-.32.35-.14.08-.3.12-.48.12-.28 0-.5-.1-.67-.28-.16-.18-.25-.43-.25-.73v-.02zm.44.03c0 .2.04.36.12.47.09.11.2.17.35.17.15 0 .27-.06.35-.17.09-.12.13-.29.13-.51 0-.2-.04-.36-.13-.47-.09-.12-.2-.17-.35-.17-.14 0-.26.05-.34.17-.08.11-.12.28-.12.51zm2.62.25c0-.12.03-.24.1-.34.07-.1.2-.22.4-.36-.1-.13-.17-.24-.21-.33-.04-.09-.06-.18-.06-.26 0-.21.06-.37.19-.49s.3-.18.51-.18c.19 0 .35.05.48.17.13.11.19.25.19.41 0 .11-.02.21-.08.3s-.15.18-.28.27l-.18.13.51.6c.07-.15.11-.31.11-.48h.38c0 .32-.07.59-.23.79l.39.46h-.51l-.15-.18c-.19.14-.41.21-.68.21-.26 0-.47-.07-.63-.21-.15-.14-.23-.32-.23-.54zm.88.39c.15 0 .29-.05.42-.15l-.58-.68-.06.04c-.14.11-.22.23-.22.37 0 .12.04.22.12.29.08.08.19.12.32.12zm-.24-1.7c0 .1.06.23.19.38l.2-.14.06-.05c.08-.07.12-.15.12-.26 0-.07-.02-.13-.08-.18-.05-.05-.12-.08-.2-.08-.08 0-.15.03-.2.08-.05.06-.07.13-.07.22zm3.25 1.03v.97h-.46v-2.63h1.01c.3 0 .53.07.71.23.17.15.26.35.26.6 0 .26-.09.46-.26.6-.17.15-.41.22-.71.22h-.55zm0-.37h.55c.17 0 .29-.04.38-.12.08-.07.13-.18.13-.33 0-.14-.05-.25-.14-.34-.09-.08-.21-.13-.36-.13h-.57v.92zm3.07 1.15c-.13.15-.31.23-.55.23-.21 0-.37-.07-.48-.19-.11-.13-.16-.31-.16-.54v-1.26h.44V27c0 .246.11.37.32.37.22 0 .36-.076.44-.23v-1.4h.44v1.96h-.42l-.01-.192zm2.61-.77c0 .3-.07.54-.2.72-.13.18-.32.27-.56.27-.23 0-.41-.09-.53-.25l-.02.21h-.4V24.9h.44v1.006c.13-.15.3-.22.52-.22.24 0 .43.09.57.264.14.178.2.425.2.74v.02zm-.44-.04c0-.21-.03-.37-.11-.48-.07-.11-.18-.16-.33-.16-.19 0-.32.08-.4.25v.8c.08.17.22.25.41.25.14 0 .25-.05.32-.16.08-.11.12-.26.12-.47v-.06zm.84.99h.45V24.9h-.44v2.78zm.96 0h.44v-1.95h-.44v1.96zm-.03-2.46c0-.07.02-.13.06-.17.05-.05.11-.07.19-.07s.15.02.19.07c.04.04.07.1.07.17s-.02.12-.07.16c-.04.05-.1.07-.18.07s-.14-.02-.18-.07c-.04-.04-.06-.1-.06-.17zm1.76 2.14c.11 0 .2-.03.27-.1.08-.07.11-.15.12-.24h.42c0 .12-.04.23-.11.34-.07.11-.17.19-.29.25-.12.06-.25.09-.4.09-.27 0-.49-.09-.65-.27-.16-.18-.25-.42-.25-.73v-.04c0-.3.08-.54.24-.72.16-.18.38-.27.66-.27.23 0 .42.07.57.2.14.13.22.31.23.53h-.42c-.01-.11-.04-.21-.12-.28-.07-.07-.16-.11-.27-.11-.14 0-.26.05-.33.152-.08.1-.12.26-.12.47v.07c0 .21.04.37.11.47.08.1.19.15.34.15zm1.17.31h.44V25.7h-.44v1.96zm-.03-2.46c0-.07.02-.13.07-.17.04-.05.11-.07.19-.07s.14.03.19.07c.05.05.07.1.07.17s-.02.12-.06.17c-.04.04-.1.06-.18.06-.08 0-.14-.02-.18-.07-.04-.05-.06-.1-.06-.17zm.87 1.47c0-.3.07-.55.21-.73.15-.18.33-.27.57-.27.21 0 .38.07.51.21v-1h.45v2.77h-.41l-.02-.21c-.13.16-.31.24-.53.24-.23 0-.41-.09-.56-.28-.14-.18-.21-.43-.21-.75zm.45.03c0 .2.04.36.12.47.08.11.19.17.33.17.18 0 .32-.08.4-.24v-.83c-.08-.16-.21-.24-.39-.24-.14 0-.25.06-.33.17-.08.11-.12.28-.12.51zm2.92.95c-.02-.04-.03-.1-.05-.18-.14.15-.31.22-.51.22s-.36-.055-.48-.17c-.12-.11-.19-.25-.19-.41 0-.21.08-.37.24-.48.16-.11.38-.17.67-.17h.27v-.126c0-.1-.03-.18-.08-.24-.06-.06-.14-.09-.26-.09-.1 0-.18.03-.25.08s-.09.11-.09.19h-.44c0-.11.04-.21.11-.3.07-.093.17-.17.29-.22.12-.05.26-.08.41-.08.23 0 .42.06.55.17.14.12.21.28.21.49v.88c0 .177.03.317.08.42v.03h-.45zm-.48-.314c.09 0 .17-.02.25-.066.08-.04.14-.1.18-.17v-.36h-.25c-.16 0-.29.03-.37.09-.08.06-.12.14-.12.24 0 .09.03.15.08.2.06.05.13.08.23.08zm1.25-.677c0-.31.07-.55.21-.73.14-.19.33-.28.57-.28.21 0 .38.07.5.215v-1h.44v2.78h-.4l-.02-.2c-.13.16-.31.24-.53.24-.23 0-.41-.09-.56-.28-.14-.18-.21-.43-.21-.75zm.44.03c0 .2.04.352.12.463.08.11.19.17.33.17.18 0 .32-.08.4-.24v-.83c-.08-.16-.21-.24-.39-.24-.14 0-.25.06-.33.17-.08.11-.11.28-.11.51zM45.7 19.03c.09-.04.23-.065.41-.065.18 0 .34.07.47.214.14.14.208.3.208.48 0 .33-.146.57-.43.72-.575.33-1.19.6-1.846.81-.655.21-1.45.31-2.375.31-.93 0-1.79-.15-2.58-.45-.794-.3-1.477-.73-2.05-1.3-1.237-1.2-1.855-2.81-1.855-4.85 0-2.02.62-3.63 1.857-4.84 1.19-1.17 2.73-1.75 4.63-1.75.92 0 1.71.11 2.36.33.65.23 1.15.43 1.5.62.34.19.56.34.64.45.08.11.12.26.12.44s-.07.34-.2.48c-.14.14-.29.21-.47.21-.17 0-.31-.02-.42-.07-.5-.27-1-.48-1.53-.64-.52-.15-1.16-.23-1.93-.23s-1.46.13-2.09.39c-.63.26-1.15.61-1.57 1.06-.83.9-1.24 2.08-1.22 3.55 0 1.46.4 2.65 1.22 3.54.9.97 2.15 1.46 3.73 1.46.72 0 1.35-.08 1.87-.24.52-.16 1.03-.37 1.53-.64zm3.44-10.38c0-.24.08-.436.25-.59.165-.16.37-.24.61-.24s.44.08.6.24c.16.16.24.36.24.6V20.6c0 .224-.08.42-.24.583-.16.164-.36.246-.6.246s-.447-.09-.61-.25c-.17-.17-.25-.36-.25-.58V8.68zm4.82 4.06c0-.254.08-.46.25-.62.163-.16.37-.233.61-.233s.44.076.59.234c.15.16.223.36.223.62v7.88c0 .23-.07.42-.222.58-.15.17-.35.25-.59.25s-.44-.08-.61-.24c-.16-.16-.25-.36-.25-.58v-7.88zm1.84-3.6c0 .27-.09.5-.273.678-.18.18-.41.27-.68.27h-.114c-.27 0-.492-.09-.665-.27-.174-.18-.26-.403-.26-.67v-.07c0-.27.09-.5.27-.678.18-.18.4-.27.657-.27h.114c.27 0 .5.09.68.27.18.18.27.4.27.67v.06zm7.304 10.84c.69 0 1.35-.16 1.963-.49.21-.12.41-.18.59-.19.18-.003.34.07.475.24.133.16.2.35.2.57 0 .215-.145.41-.43.59-.876.57-1.857.85-2.94.85-1.376 0-2.537-.43-3.487-1.28-.994-.912-1.484-2.11-1.47-3.59 0-1.48.49-2.68 1.47-3.59.937-.87 2.098-1.293 3.486-1.28.74 0 1.35.09 1.83.28.48.19.85.376 1.13.56.28.19.42.39.42.62 0 .224-.06.41-.2.56-.14.15-.27.225-.41.225-.21 0-.43-.06-.65-.18-.63-.34-1.29-.51-1.97-.49-1.08 0-1.92.31-2.52.91-.59.61-.89 1.41-.89 2.39 0 .99.3 1.79.9 2.39.6.61 1.44.91 2.52.91zm13.26.18c.12.15.18.34.18.55 0 .22-.08.4-.24.54-.16.14-.34.218-.53.218-.307 0-.56-.11-.77-.335l-3.19-4.31-1.61 1.46v2.36c0 .223-.08.42-.25.58-.166.17-.36.25-.59.25-.225 0-.42-.08-.587-.246-.166-.165-.25-.36-.25-.58V8.69c0-.224.08-.418.24-.583.157-.165.357-.247.6-.247.226 0 .422.082.59.247.163.165.25.36.25.583v7.517l4.41-4.04c.195-.148.42-.223.67-.223.245 0 .43.086.54.258.112.172.17.325.17.46 0 .27-.107.508-.318.718L73 15.756l3.35 4.398z"/>
</svg>